<?xml version="1.0" standalone="no"?>
<!DOCTYPE svg PUBLIC "-//W3C//DTD SVG 20010904//EN"
 "http://www.w3.org/TR/2001/REC-SVG-20010904/DTD/svg10.dtd">
<svg version="1.0" xmlns="http://www.w3.org/2000/svg"
 width="1600.000000pt" height="400.000000pt" viewBox="0 0 1600.000000 400.000000"
 preserveAspectRatio="xMidYMid meet">

<g transform="translate(0.000000,400.000000) scale(0.100000,-0.100000)"
fill="#000000" stroke="none">
<path d="M1495 3974 c-137 -29 -315 -85 -420 -132 -486 -218 -872 -670 -1008
-1182 -69 -257 -67 -232 -65 -925 l3 -629 33 -8 c18 -5 531 -7 1140 -5 1228 3
1152 -1 1305 71 191 89 331 253 386 454 19 71 38 189 30 194 -2 2 -492 5
-1089 8 l-1084 5 2 210 c3 251 14 341 53 459 113 339 379 608 714 723 169 58
143 56 1365 62 l1125 6 -3 55 c-9 170 -110 369 -243 480 -77 64 -133 96 -247
142 l-94 38 -896 -1 -897 -1 -110 -24z"/>
<path d="M9855 3727 c-3 -7 -4 -80 -3 -162 l3 -150 160 0 160 0 0 160 0 160
-158 3 c-123 2 -159 0 -162 -11z"/>
<path d="M10415 3727 c-3 -7 -4 -80 -3 -162 l3 -150 160 0 160 0 0 160 0 160
-158 3 c-123 2 -159 0 -162 -11z"/>
<path d="M5113 3199 c-176 -29 -347 -161 -431 -332 -52 -107 -62 -166 -62
-360 0 -150 2 -176 16 -181 9 -3 256 -6 550 -6 294 0 534 -4 534 -8 0 -19 -79
-128 -106 -148 -85 -62 -59 -59 -544 -64 l-445 -5 -3 -162 -2 -163 453 0 c419
0 460 2 531 20 232 59 403 247 441 485 16 96 20 341 7 363 -7 10 -125 14 -548
19 -296 3 -540 7 -542 8 -9 8 44 91 81 127 86 84 75 82 572 88 l440 5 3 149
c2 101 -1 153 -9 162 -9 12 -87 14 -448 13 -240 -1 -459 -5 -488 -10z"/>
<path d="M6758 3200 c-83 -14 -147 -41 -223 -91 -127 -86 -203 -186 -251 -334
-24 -74 -26 -94 -27 -275 -2 -222 5 -263 63 -385 83 -173 223 -288 401 -330
52 -12 148 -15 517 -15 l452 0 2 98 c3 150 1 212 -7 220 -4 4 -203 9 -443 12
-430 5 -438 5 -479 28 -64 34 -111 80 -141 136 -25 47 -27 62 -30 198 -4 174
8 231 66 305 22 27 62 61 93 78 l54 30 443 5 c243 3 442 8 442 13 0 4 0 77 0
162 l0 155 -442 -1 c-244 -1 -464 -5 -490 -9z"/>
<path d="M7908 3198 c-4 -14 -4 -433 0 -1036 l2 -392 163 2 162 3 3 272 2 272
318 3 c174 2 347 1 385 0 l67 -4 0 -227 c0 -126 3 -249 6 -275 l7 -46 158 0
159 0 -2 718 -3 717 -160 0 -160 0 -5 -275 -5 -275 -280 -3 c-154 -2 -326 0
-382 3 l-103 7 0 268 c0 235 -2 269 -16 274 -9 3 -82 6 -164 6 -110 0 -149 -3
-152 -12z"/>
<path d="M10053 3195 c-171 -37 -330 -161 -409 -320 -65 -130 -66 -143 -71
-550 -3 -203 -2 -411 2 -462 l7 -93 161 2 162 3 3 273 c1 149 6 272 10 272 4
1 176 1 382 1 l375 1 6 -273 c3 -151 6 -275 7 -276 1 -2 74 -3 162 -3 l160 0
2 148 c3 329 -4 770 -14 822 -11 60 -64 174 -105 230 -85 114 -221 197 -368
225 -98 19 -385 19 -472 0z m452 -344 c28 -12 65 -36 83 -54 34 -33 82 -107
82 -126 0 -8 -115 -11 -375 -11 -206 0 -375 2 -375 5 0 13 35 72 62 107 67 85
142 109 333 105 119 -3 148 -7 190 -26z"/>
<path d="M11741 3199 c-173 -29 -342 -158 -425 -322 -65 -130 -66 -140 -66
-649 l0 -458 163 2 162 3 3 272 2 271 544 4 c300 1 547 5 549 8 9 9 13 308 4
316 -4 5 -251 10 -548 12 -296 3 -539 7 -539 11 0 3 13 29 30 57 32 56 71 93
134 127 40 21 51 22 483 27 l443 5 5 134 c3 74 3 148 0 163 l-7 28 -441 -1
c-243 -1 -466 -5 -496 -10z"/>
<path d="M13435 3204 c-255 -30 -467 -211 -532 -455 -22 -84 -25 -425 -4 -509
44 -175 167 -332 323 -411 119 -60 195 -66 779 -61 l316 2 5 138 c3 75 2 148
-2 162 l-6 25 -445 5 c-490 6 -465 2 -546 73 -39 34 -93 112 -93 134 0 11 103
13 539 13 387 0 542 3 547 11 9 15 16 255 8 292 l-6 27 -539 0 c-450 0 -541 2
-545 14 -8 20 52 111 96 146 83 66 72 64 553 70 l437 5 6 135 c3 83 1 146 -5
163 l-11 27 -422 -1 c-233 -1 -436 -4 -453 -5z"/>
<path d="M14558 3098 c-7 -221 -8 -966 -2 -1145 l7 -183 164 0 163 0 0 275 0
275 358 0 359 0 21 -23 c36 -39 42 -81 42 -309 0 -119 3 -219 8 -221 4 -2 78
-2 165 1 l158 4 -3 274 -3 273 -47 90 -47 91 24 28 c12 15 35 56 49 91 21 53
26 81 26 154 0 85 -2 96 -39 172 -50 103 -119 173 -220 223 l-75 37 -552 3
-553 3 -3 -113z m1046 -228 c35 -13 71 -88 62 -125 -4 -15 -20 -40 -36 -56
-35 -35 -32 -35 -557 -31 l-183 2 0 110 0 110 344 0 c200 0 355 -4 370 -10z"/>
<path d="M1688 2900 c-145 -25 -267 -89 -379 -200 -94 -93 -145 -174 -185
-292 -31 -90 -43 -206 -23 -219 8 -5 479 -9 1087 -9 l1072 0 0 -199 c0 -233
-10 -319 -51 -456 -73 -238 -221 -443 -424 -587 -119 -85 -235 -137 -395 -180
l-85 -22 -1130 -3 c-621 -2 -1140 -5 -1152 -8 -20 -5 -23 -12 -23 -59 0 -72
49 -222 102 -311 23 -38 76 -104 118 -145 84 -83 162 -129 303 -179 l89 -31
857 0 c953 0 935 -1 1184 70 599 172 1049 603 1241 1190 85 261 89 298 93
1001 4 559 3 618 -12 633 -15 15 -114 16 -1128 15 -612 -1 -1133 -5 -1159 -9z"/>
<path d="M15919 1326 c-38 -29 -333 -331 -350 -358 -14 -22 -19 33 -19 198 0
167 -1 174 -20 174 -20 0 -20 -7 -20 -300 0 -288 1 -300 19 -300 17 0 19 9 23
80 l3 80 67 67 c37 37 69 65 71 63 2 -3 60 -71 131 -152 82 -96 134 -148 147
-148 10 0 19 4 19 8 0 10 -96 127 -198 240 l-75 83 29 32 c16 17 73 78 127
134 53 56 97 109 97 117 0 21 -1 21 -51 -18z"/>
<path d="M8208 1333 c-19 -23 -130 -208 -202 -340 -31 -56 -60 -104 -65 -107
-4 -3 -20 18 -35 47 -14 29 -73 131 -130 227 -146 248 -141 252 -141 -120 0
-288 0 -295 20 -295 19 0 20 8 25 245 5 230 6 243 21 220 9 -14 54 -90 99
-170 128 -222 135 -233 150 -215 18 22 70 110 156 265 43 77 81 137 86 132 4
-4 9 -113 10 -242 3 -208 5 -235 19 -238 14 -2 17 9 21 66 6 107 -3 542 -12
542 -4 0 -14 -8 -22 -17z"/>
<path d="M8672 1338 c-16 -21 -71 -134 -122 -253 -27 -60 -71 -159 -99 -218
-54 -115 -61 -140 -35 -135 19 3 22 8 67 103 l33 70 172 3 173 2 40 -84 c21
-46 46 -87 55 -90 37 -14 36 -12 -83 254 -159 356 -174 381 -201 348z m54
-125 c52 -116 114 -256 114 -259 0 -2 -68 -4 -151 -4 -117 0 -150 3 -146 13
17 39 129 292 133 299 12 19 26 5 50 -49z"/>
<path d="M13756 1337 c-15 -11 -17 -40 -14 -302 l3 -290 23 -3 c22 -3 22 -3
22 137 l0 141 190 0 c105 0 193 1 198 3 4 1 8 -62 10 -140 2 -135 4 -143 22
-143 19 0 20 8 21 148 2 287 0 442 -6 452 -3 5 -12 7 -20 3 -12 -4 -15 -27
-15 -113 0 -59 -3 -120 -6 -136 -5 -27 -9 -29 -47 -28 -23 0 -111 1 -194 2
l-153 2 0 134 c0 74 -4 137 -9 140 -4 3 -16 0 -25 -7z"/>
<path d="M14486 1334 c-3 -9 -6 -144 -6 -300 0 -247 2 -285 15 -291 9 -3 18
-4 20 -1 2 2 5 80 7 173 1 94 5 205 8 249 l5 79 110 -139 c61 -77 148 -187
194 -247 78 -101 115 -137 124 -120 2 5 4 141 6 305 2 301 -1 326 -34 298 -12
-10 -15 -55 -15 -257 0 -154 -4 -242 -10 -238 -5 3 -62 74 -127 158 -154 200
-252 319 -273 334 -15 10 -19 10 -24 -3z"/>
<path d="M4620 1041 l0 -301 25 0 25 0 -2 298 -3 297 -22 3 -23 3 0 -300z"/>
<path d="M4917 1333 c-4 -3 -7 -136 -7 -294 0 -271 1 -289 19 -298 10 -6 21
-7 25 -4 3 3 6 121 7 262 l0 256 22 -29 c83 -108 343 -437 367 -463 17 -18 35
-33 40 -33 6 0 10 114 10 305 0 298 0 305 -20 305 -19 0 -20 -7 -22 -202 -1
-112 -1 -222 0 -245 2 -23 -2 -44 -7 -47 -6 -4 -29 19 -53 51 -23 32 -68 90
-98 128 -31 39 -100 125 -154 193 -91 114 -112 132 -129 115z"/>
<path d="M5650 1040 c0 -292 1 -300 20 -300 18 0 20 8 22 132 l3 131 150 2
c186 3 175 2 175 20 0 12 -19 15 -112 15 -62 0 -137 3 -166 7 l-53 6 3 121 3
121 175 0 c174 0 175 0 178 23 l3 22 -200 0 -201 0 0 -300z"/>
<path d="M6353 1324 c-60 -22 -127 -86 -160 -152 -56 -114 -30 -264 62 -354
46 -45 89 -66 160 -78 151 -25 290 47 350 181 24 54 27 71 23 133 -9 128 -90
238 -199 270 -65 20 -180 19 -236 0z m243 -52 c57 -29 111 -88 129 -141 46
-135 -21 -287 -148 -336 -71 -27 -182 -17 -244 21 -96 59 -140 171 -114 290
20 87 74 149 159 180 52 20 166 13 218 -14z"/>
<path d="M6974 1325 c-4 -9 -5 -143 -2 -297 4 -219 8 -282 19 -288 24 -16 29
0 29 96 l0 94 110 0 c61 0 113 1 118 2 4 1 37 -41 73 -92 62 -88 100 -122 116
-106 4 3 -26 53 -65 110 -64 93 -70 105 -53 111 33 10 101 88 113 128 9 29 9
52 0 93 -13 65 -41 104 -95 135 -38 21 -57 24 -199 27 -142 4 -158 3 -164 -13z
m329 -50 c113 -53 114 -221 2 -275 -47 -23 -208 -39 -259 -26 l-26 6 0 154 c0
114 3 156 13 160 6 3 62 4 123 2 79 -2 121 -8 147 -21z"/>
<path d="M9002 1318 c3 -22 6 -23 100 -20 62 2 98 -1 103 -8 4 -6 6 -110 6
-231 -2 -266 4 -321 31 -317 17 3 19 17 21 278 l2 275 108 3 c99 2 107 4 107
22 0 19 -8 20 -241 20 l-240 0 3 -22z"/>
<path d="M9625 1327 c-3 -7 -4 -140 -3 -297 l3 -285 23 -3 22 -3 0 300 c0 296
0 301 -20 301 -11 0 -23 -6 -25 -13z"/>
<path d="M10070 1331 c-82 -25 -168 -110 -195 -192 -51 -154 33 -337 177 -385
58 -19 172 -21 225 -3 138 44 233 203 204 340 -25 117 -99 206 -194 234 -53
16 -174 19 -217 6z m186 -46 c109 -32 174 -122 174 -242 0 -91 -23 -147 -83
-199 -129 -114 -335 -75 -412 77 -53 104 -24 246 67 323 63 55 158 70 254 41z"/>
<path d="M10670 1045 c0 -284 1 -295 20 -305 11 -6 21 -9 22 -8 1 2 5 120 8
262 l5 260 72 -95 c151 -196 323 -413 335 -420 7 -5 16 -9 21 -9 4 0 7 138 7
306 0 286 -1 305 -17 302 -17 -3 -18 -24 -21 -251 -1 -148 -6 -247 -12 -247
-5 0 -28 26 -52 58 -23 31 -111 144 -195 250 -106 132 -160 192 -173 192 -19
0 -20 -8 -20 -295z"/>
<path d="M11465 1326 c-42 -18 -93 -79 -101 -120 -4 -26 0 -47 15 -79 30 -61
67 -80 248 -127 147 -37 144 -187 -4 -221 -52 -11 -158 7 -210 37 -48 28 -63
30 -63 9 0 -20 65 -61 119 -75 63 -16 161 -14 210 6 83 33 127 116 98 186 -23
54 -71 84 -183 114 -54 14 -113 34 -130 45 -76 46 -68 151 14 186 51 22 147
18 216 -8 32 -11 60 -18 63 -15 15 14 -29 54 -71 65 -60 15 -184 13 -221 -3z"/>
<path d="M11854 1328 c-4 -6 2 -17 12 -25 14 -11 42 -14 111 -11 85 4 93 2 99
-15 3 -11 5 -88 4 -171 -2 -83 -2 -199 -1 -258 1 -101 2 -108 21 -108 19 0 20
8 22 278 l3 277 108 3 c99 2 107 4 107 22 0 19 -8 20 -239 20 -170 0 -242 -3
-247 -12z"/>
<path d="M12485 1327 c-3 -7 -4 -140 -3 -297 l3 -285 35 -5 c19 -3 113 -4 208
-2 153 4 173 6 170 21 -3 14 -26 16 -186 19 l-182 2 0 120 0 120 161 0 160 0
-3 23 c-3 19 -9 22 -48 22 -25 1 -96 2 -157 3 l-113 2 0 116 0 116 175 -7 175
-6 0 25 0 26 -195 0 c-148 0 -197 -3 -200 -13z"/>
<path d="M13235 1328 c-36 -13 -103 -58 -127 -84 -9 -11 -29 -44 -44 -74 -70
-139 -10 -330 127 -400 80 -41 211 -45 284 -8 48 24 85 57 85 75 0 17 3 18
-74 -22 -58 -30 -77 -35 -134 -35 -165 2 -267 99 -267 255 0 217 205 332 405
227 34 -18 65 -30 68 -27 10 9 -33 59 -69 80 -40 23 -204 32 -254 13z"/>
<path d="M15210 1040 l0 -300 25 0 25 0 0 300 0 300 -25 0 -25 0 0 -300z"/>
</g>
</svg>
